<svg width="94" height="89" viewBox="0 0 94 89" fill="none" xmlns="http://www.w3.org/2000/svg">
<path d="M59.7183 13.5374L80.4162 42.8616C81.3211 44.1436 81.3958 45.8403 80.5824 47.1823C68.06 67.8428 57.9877 73.9106 38.1715 75.677C36.8256 75.797 35.5177 75.2017 34.7001 74.1258L14.5182 47.5687C12.3214 44.678 14.802 40.5915 18.3803 41.2063L26.8921 42.6688C29.3362 43.0887 31.5695 41.2064 31.5695 38.7266V28.7148C31.5695 26.0988 34.0392 24.1869 36.5718 24.8424L46.4139 27.3899C48.748 27.994 51.0821 26.4113 51.3846 24.0193L52.482 15.3422C52.94 11.72 57.6129 10.5546 59.7183 13.5374Z" fill="#C99E30"/>
<path d="M37.7354 85.2064C68.5463 85.8363 86.8811 61.2674 90.0074 48.3057C90.2107 47.4629 90.0632 46.5835 89.6664 45.8127L71.9378 11.3784C70.1431 7.89249 64.9253 8.80174 64.4154 12.6893L62.9623 23.7694C62.6438 26.1981 60.2369 27.7727 57.884 27.0916L32.1025 19.6285C29.5442 18.8879 26.9903 20.8074 26.9903 23.4707V48.5845C26.9903 50.7936 25.1994 52.5845 22.9903 52.5845H10.446C6.77726 52.5845 5.04392 57.1111 7.77434 59.5614L35.2342 84.2049C35.9216 84.8218 36.8119 85.1875 37.7354 85.2064Z" fill="#FFC632"/>
<path d="M41.998 83.9921C69.4438 84.4749 85.8215 62.8005 88.7221 51.2239C88.9339 50.3784 88.783 49.4973 88.3821 48.7233L73.1415 19.2996C71.3413 15.824 66.1361 16.7355 65.6241 20.6161L64.5561 28.7104C64.2362 31.135 61.8347 32.7075 59.4844 32.0313L37.3225 25.6546C34.7657 24.9189 32.2165 26.838 32.2165 29.4987V50.8963C32.2165 53.1054 30.4256 54.8963 28.2165 54.8963H18.4931C14.8185 54.8963 13.0882 59.4352 15.8304 61.8813L39.5057 83.0004C40.1922 83.6127 41.0782 83.9759 41.998 83.9921Z" fill="#FFCD4D"/>
<path d="M35.6439 88.8477C70.4502 90.0104 90.9301 61.7921 93.8624 47.6673C93.9611 47.1921 93.8712 46.7123 93.6359 46.2878C92.7621 44.712 90.4337 44.8697 89.7175 46.5231C77.8461 73.9282 64.2626 80.9457 35.5325 84.1545C33.4511 84.387 32.6521 87.0333 34.2863 88.3432C34.6708 88.6514 35.1514 88.8313 35.6439 88.8477Z" fill="#F3BF39"/>
<path d="M44.7265 41.4578C44.7265 40.7555 45.4314 40.272 46.0866 40.5249L63.4059 47.2094C63.8091 47.365 64.0667 47.762 64.0445 48.1936L63.1489 65.6343C63.1142 66.3102 62.4322 66.7571 61.7986 66.5192L45.3743 60.3503C44.9842 60.2038 44.7259 59.8308 44.7259 59.4141L44.7265 41.4578Z" fill="#F3BF39"/>
<path d="M46.9671 45.2358C46.9409 44.522 47.6499 44.0118 48.3184 44.2632L60.8641 48.9808C61.2539 49.1274 61.5121 49.5003 61.5121 49.9168L61.5121 62.3938C61.5121 63.0922 60.8143 63.5755 60.1605 63.33L48.0781 58.7919C47.7005 58.6501 47.4451 58.2953 47.4303 57.8923L46.9671 45.2358Z" fill="#FFDF8D"/>
<path d="M48.3809 48.5723C48.3395 47.4408 49.9142 47.1226 50.3153 48.1814L52.7758 54.675C52.8412 54.8474 52.9529 54.9985 53.0987 55.1113L57.5203 58.5354C58.4273 59.2378 57.6304 60.6655 56.5564 60.2622L49.3241 57.5458C48.9466 57.404 48.6912 57.0493 48.6764 56.6462L48.3809 48.5723Z" fill="#FFF3D5"/>
</svg>
